<svg xmlns="http://www.w3.org/2000/svg" xmlns:xlink="http://www.w3.org/1999/xlink" fill="none" version="1.1" width="55" height="55" viewBox="0 0 55 55"><g><path d="M37.844,51.1085L37.0511,53.3137L24.7248,54.2866L18.5976,51.5625L18.5976,54.092L7.20839,55L0,51.7571L0,2.46462L14.1284,1.29717L21.3368,4.5401L27.1035,23.8679L33.7353,1.03774L47.7916,0L55,3.24292L55,52.6002L43.0341,53.4434L37.844,51.1085ZM34.3119,1.68632L25.1573,33.467Q24.941,34.2453,24.7248,35.2506Q24.5085,36.2559,24.3644,37.0342Q24.2202,37.8125,24.2202,37.8125L23.9318,37.8774L23.8237,37.0991Q23.7156,36.3208,23.5354,35.283Q23.3552,34.2453,23.1389,33.5318L13.5518,2.01061L0.720839,3.04835L0.720839,51.0436L10.6684,50.3302L10.6684,29.5755Q10.6684,28.2134,10.5963,26.6893Q10.5242,25.1651,10.4522,24.1274Q10.3801,23.0896,10.3801,23.0896L10.5242,23.0248Q10.6684,23.9328,10.9207,25.2624Q11.173,26.592,11.4974,27.7919Q11.8218,28.9917,11.9659,29.6403L18.021,50.3951L29.194,49.487L35.1048,29.5755Q35.5374,28.0837,35.8978,26.4298Q36.2582,24.7759,36.4744,23.6085Q36.6907,22.441,36.6907,22.441L36.8349,22.5059L36.7628,23.6733Q36.6907,24.8408,36.6186,26.3974Q36.5465,27.954,36.5465,29.1863L36.5465,49.5519L47.0708,48.7736L47.0708,0.713443L34.3119,1.68632Z" fill="#3D3D3D" fill-opacity="1"/></g></svg>